<mxfile host="65bd71144e">
    <diagram id="WI9T0HZ2pTsCkuznbFz-" name="Page-1">
        <mxGraphModel dx="1057" dy="444" grid="1" gridSize="10" guides="1" tooltips="1" connect="1" arrows="1" fold="1" page="1" pageScale="1" pageWidth="827" pageHeight="1169" math="0" shadow="0">
            <root>
                <mxCell id="0"/>
                <mxCell id="1" parent="0"/>
                <mxCell id="6" value="" style="rounded=0;whiteSpace=wrap;html=1;movable=0;resizable=0;rotatable=0;deletable=0;editable=0;connectable=0;" vertex="1" parent="1">
                    <mxGeometry x="-60" y="30" width="1350" height="730" as="geometry"/>
                </mxCell>
                <mxCell id="Zka4xVYExCne9jpy6aN3-55" value="" style="rounded=0;whiteSpace=wrap;html=1;fillColor=none;movable=0;resizable=0;rotatable=0;deletable=0;editable=0;locked=0;connectable=0;" parent="1" vertex="1">
                    <mxGeometry x="550" y="210" width="570" height="330" as="geometry"/>
                </mxCell>
                <mxCell id="Zka4xVYExCne9jpy6aN3-50" value="" style="rounded=0;whiteSpace=wrap;html=1;fillColor=none;movable=0;resizable=0;rotatable=0;deletable=0;editable=0;locked=0;connectable=0;" parent="1" vertex="1">
                    <mxGeometry x="230" y="210" width="240" height="330" as="geometry"/>
                </mxCell>
                <mxCell id="Zka4xVYExCne9jpy6aN3-27" value="" style="image;aspect=fixed;html=1;points=[];align=center;fontSize=12;image=img/lib/azure2/general/Browser.svg;" parent="1" vertex="1">
                    <mxGeometry x="365.5" y="409" width="65" height="52" as="geometry"/>
                </mxCell>
                <mxCell id="Zka4xVYExCne9jpy6aN3-17" style="edgeStyle=orthogonalEdgeStyle;rounded=0;orthogonalLoop=1;jettySize=auto;html=1;entryX=0.5;entryY=1;entryDx=0;entryDy=0;" parent="1" edge="1">
                    <mxGeometry relative="1" as="geometry">
                        <mxPoint x="930" y="409" as="sourcePoint"/>
                        <mxPoint x="930" y="336" as="targetPoint"/>
                    </mxGeometry>
                </mxCell>
                <mxCell id="Zka4xVYExCne9jpy6aN3-48" value="Input と Agents | Memory | Prompt" style="edgeLabel;html=1;align=center;verticalAlign=middle;resizable=0;points=[];" parent="Zka4xVYExCne9jpy6aN3-17" vertex="1" connectable="0">
                    <mxGeometry x="0.0192" y="2" relative="1" as="geometry">
                        <mxPoint x="-88" y="-2" as="offset"/>
                    </mxGeometry>
                </mxCell>
                <mxCell id="Zka4xVYExCne9jpy6aN3-2" value="&lt;font style=&quot;font-size: 36px;&quot;&gt;🦜️🔗&lt;/font&gt; &lt;font style=&quot;font-size: 27px;&quot;&gt;LangChain&lt;/font&gt;" style="text;whiteSpace=wrap;html=1;fontSize=38;align=left;spacing=2;labelPosition=center;verticalLabelPosition=middle;verticalAlign=middle;horizontal=1;spacingBottom=0;spacingLeft=3;" parent="1" vertex="1">
                    <mxGeometry x="880" y="410" width="230" height="50" as="geometry"/>
                </mxCell>
                <mxCell id="Zka4xVYExCne9jpy6aN3-6" value="" style="edgeStyle=orthogonalEdgeStyle;rounded=0;orthogonalLoop=1;jettySize=auto;html=1;" parent="1" edge="1">
                    <mxGeometry relative="1" as="geometry">
                        <mxPoint x="160" y="420" as="sourcePoint"/>
                        <mxPoint x="355.5" y="420" as="targetPoint"/>
                        <Array as="points">
                            <mxPoint x="335.5" y="420"/>
                            <mxPoint x="335.5" y="420"/>
                        </Array>
                    </mxGeometry>
                </mxCell>
                <mxCell id="Zka4xVYExCne9jpy6aN3-7" value="入力" style="edgeLabel;html=1;align=center;verticalAlign=middle;resizable=0;points=[];fontSize=16;" parent="Zka4xVYExCne9jpy6aN3-6" vertex="1" connectable="0">
                    <mxGeometry x="-0.048" y="-2" relative="1" as="geometry">
                        <mxPoint x="-53" y="-19" as="offset"/>
                    </mxGeometry>
                </mxCell>
                <mxCell id="Zka4xVYExCne9jpy6aN3-4" value="" style="image;aspect=fixed;html=1;points=[];align=center;fontSize=12;image=img/lib/azure2/identity/Users.svg;" parent="1" vertex="1">
                    <mxGeometry x="75.5" y="402.77" width="64" height="70" as="geometry"/>
                </mxCell>
                <mxCell id="Zka4xVYExCne9jpy6aN3-10" style="edgeStyle=orthogonalEdgeStyle;rounded=0;orthogonalLoop=1;jettySize=auto;html=1;" parent="1" edge="1">
                    <mxGeometry relative="1" as="geometry">
                        <mxPoint x="160" y="450" as="targetPoint"/>
                        <mxPoint x="355.5" y="450" as="sourcePoint"/>
                    </mxGeometry>
                </mxCell>
                <mxCell id="Zka4xVYExCne9jpy6aN3-11" value="出力" style="edgeLabel;html=1;align=center;verticalAlign=middle;resizable=0;points=[];fontSize=16;" parent="Zka4xVYExCne9jpy6aN3-10" vertex="1" connectable="0">
                    <mxGeometry x="0.0056" y="-1" relative="1" as="geometry">
                        <mxPoint x="47" y="24" as="offset"/>
                    </mxGeometry>
                </mxCell>
                <mxCell id="Zka4xVYExCne9jpy6aN3-18" style="edgeStyle=orthogonalEdgeStyle;rounded=0;orthogonalLoop=1;jettySize=auto;html=1;" parent="1" edge="1">
                    <mxGeometry relative="1" as="geometry">
                        <mxPoint x="987" y="336" as="sourcePoint"/>
                        <mxPoint x="987" y="409" as="targetPoint"/>
                    </mxGeometry>
                </mxCell>
                <mxCell id="Zka4xVYExCne9jpy6aN3-49" value="回答の生成" style="edgeLabel;html=1;align=center;verticalAlign=middle;resizable=0;points=[];" parent="Zka4xVYExCne9jpy6aN3-18" vertex="1" connectable="0">
                    <mxGeometry x="-0.1562" relative="1" as="geometry">
                        <mxPoint x="38" y="3" as="offset"/>
                    </mxGeometry>
                </mxCell>
                <mxCell id="Zka4xVYExCne9jpy6aN3-15" value="User" style="text;html=1;strokeColor=none;fillColor=none;align=center;verticalAlign=middle;whiteSpace=wrap;rounded=0;fontSize=18;" parent="1" vertex="1">
                    <mxGeometry x="60" y="472.77" width="95" height="30" as="geometry"/>
                </mxCell>
                <mxCell id="Zka4xVYExCne9jpy6aN3-25" value="" style="shape=image;imageAspect=0;aspect=fixed;verticalLabelPosition=bottom;verticalAlign=middle;image=data:image/svg+xml,PHN2ZyB4bWxucz0iaHR0cDovL3d3dy53My5vcmcvMjAwMC9zdmciIHZpZXdCb3g9IjAgMCAxMTgwIDMyMCI+PHBhdGggZD0ibTM2Ny40NCAxNTMuODRjMCA1Mi4zMiAzMy42IDg4LjggODAuMTYgODguOHM4MC4xNi0zNi40OCA4MC4xNi04OC44LTMzLjYtODguOC04MC4xNi04OC44LTgwLjE2IDM2LjQ4LTgwLjE2IDg4Ljh6bTEyOS42IDBjMCAzNy40NC0yMC40IDYxLjY4LTQ5LjQ0IDYxLjY4cy00OS40NC0yNC4yNC00OS40NC02MS42OCAyMC40LTYxLjY4IDQ5LjQ0LTYxLjY4IDQ5LjQ0IDI0LjI0IDQ5LjQ0IDYxLjY4eiIvPjxwYXRoIGQ9Im02MTQuMjcgMjQyLjY0YzM1LjI4IDAgNTUuNDQtMjkuNzYgNTUuNDQtNjUuNTJzLTIwLjE2LTY1LjUyLTU1LjQ0LTY1LjUyYy0xNi4zMiAwLTI4LjMyIDYuNDgtMzYuMjQgMTUuODR2LTEzLjQ0aC0yOC44djE2OS4yaDI4Ljh2LTU2LjRjNy45MiA5LjM2IDE5LjkyIDE1Ljg0IDM2LjI0IDE1Ljg0em0tMzYuOTYtNjkuMTJjMC0yMy43NiAxMy40NC0zNi43MiAzMS4yLTM2LjcyIDIwLjg4IDAgMzIuMTYgMTYuMzIgMzIuMTYgNDAuMzJzLTExLjI4IDQwLjMyLTMyLjE2IDQwLjMyYy0xNy43NiAwLTMxLjItMTMuMi0zMS4yLTM2LjQ4eiIvPjxwYXRoIGQ9Im03NDcuNjUgMjQyLjY0YzI1LjIgMCA0NS4xMi0xMy4yIDU0LTM1LjI4bC0yNC43Mi05LjM2Yy0zLjg0IDEyLjk2LTE1LjEyIDIwLjE2LTI5LjI4IDIwLjE2LTE4LjQ4IDAtMzEuNDQtMTMuMi0zMy42LTM0LjhoODguMzJ2LTkuNmMwLTM0LjU2LTE5LjQ0LTYyLjE2LTU1LjkyLTYyLjE2cy02MCAyOC41Ni02MCA2NS41MmMwIDM4Ljg4IDI1LjIgNjUuNTIgNjEuMiA2NS41MnptLTEuNDQtMTA2LjhjMTguMjQgMCAyNi44OCAxMiAyNy4xMiAyNS45MmgtNTcuODRjNC4zMi0xNy4wNCAxNS44NC0yNS45MiAzMC43Mi0yNS45MnoiLz48cGF0aCBkPSJtODIzLjk4IDI0MGgyOC44di03My45MmMwLTE4IDEzLjItMjcuNiAyNi4xNi0yNy42IDE1Ljg0IDAgMjIuMDggMTEuMjggMjIuMDggMjYuODh2NzQuNjRoMjguOHYtODMuMDRjMC0yNy4xMi0xNS44NC00NS4zNi00Mi4yNC00NS4zNi0xNi4zMiAwLTI3LjYgNy40NC0zNC44IDE1Ljg0di0xMy40NGgtMjguOHoiLz48cGF0aCBkPSJtMTAxNC4xNyA2Ny42OC02NS4yOCAxNzIuMzJoMzAuNDhsMTQuNjQtMzkuMzZoNzQuNGwxNC44OCAzOS4zNmgzMC45NmwtNjUuMjgtMTcyLjMyem0xNi44IDM0LjA4IDI3LjM2IDcyaC01NC4yNHoiLz48cGF0aCBkPSJtMTE2My42OSA2OC4xOGgtMzAuNzJ2MTcyLjMyaDMwLjcyeiIvPjxwYXRoIGQ9Im0yOTcuMDYgMTMwLjk3YzcuMjYtMjEuNzkgNC43Ni00NS42Ni02Ljg1LTY1LjQ4LTE3LjQ2LTMwLjQtNTIuNTYtNDYuMDQtODYuODQtMzguNjgtMTUuMjUtMTcuMTgtMzcuMTYtMjYuOTUtNjAuMTMtMjYuODEtMzUuMDQtLjA4LTY2LjEzIDIyLjQ4LTc2LjkxIDU1LjgyLTIyLjUxIDQuNjEtNDEuOTQgMTguNy01My4zMSAzOC42Ny0xNy41OSAzMC4zMi0xMy41OCA2OC41NCA5LjkyIDk0LjU0LTcuMjYgMjEuNzktNC43NiA0NS42NiA2Ljg1IDY1LjQ4IDE3LjQ2IDMwLjQgNTIuNTYgNDYuMDQgODYuODQgMzguNjggMTUuMjQgMTcuMTggMzcuMTYgMjYuOTUgNjAuMTMgMjYuOCAzNS4wNi4wOSA2Ni4xNi0yMi40OSA3Ni45NC01NS44NiAyMi41MS00LjYxIDQxLjk0LTE4LjcgNTMuMzEtMzguNjcgMTcuNTctMzAuMzIgMTMuNTUtNjguNTEtOS45NC05NC41MXptLTEyMC4yOCAxNjguMTFjLTE0LjAzLjAyLTI3LjYyLTQuODktMzguMzktMTMuODguNDktLjI2IDEuMzQtLjczIDEuODktMS4wN2w2My43Mi0zNi44YzMuMjYtMS44NSA1LjI2LTUuMzIgNS4yNC05LjA3di04OS44M2wyNi45MyAxNS41NWMuMjkuMTQuNDguNDIuNTIuNzR2NzQuMzljLS4wNCAzMy4wOC0yNi44MyA1OS45LTU5LjkxIDU5Ljk3em0tMTI4Ljg0LTU1LjAzYy03LjAzLTEyLjE0LTkuNTYtMjYuMzctNy4xNS00MC4xOC40Ny4yOCAxLjMuNzkgMS44OSAxLjEzbDYzLjcyIDM2LjhjMy4yMyAxLjg5IDcuMjMgMS44OSAxMC40NyAwbDc3Ljc5LTQ0LjkydjMxLjFjLjAyLjMyLS4xMy42My0uMzguODNsLTY0LjQxIDM3LjE5Yy0yOC42OSAxNi41Mi02NS4zMyA2LjctODEuOTItMjEuOTV6bS0xNi43Ny0xMzkuMDljNy0xMi4xNiAxOC4wNS0yMS40NiAzMS4yMS0yNi4yOSAwIC41NS0uMDMgMS41Mi0uMDMgMi4ydjczLjYxYy0uMDIgMy43NCAxLjk4IDcuMjEgNS4yMyA5LjA2bDc3Ljc5IDQ0LjkxLTI2LjkzIDE1LjU1Yy0uMjcuMTgtLjYxLjIxLS45MS4wOGwtNjQuNDItMzcuMjJjLTI4LjYzLTE2LjU4LTM4LjQ1LTUzLjIxLTIxLjk1LTgxLjg5em0yMjEuMjYgNTEuNDktNzcuNzktNDQuOTIgMjYuOTMtMTUuNTRjLjI3LS4xOC42MS0uMjEuOTEtLjA4bDY0LjQyIDM3LjE5YzI4LjY4IDE2LjU3IDM4LjUxIDUzLjI2IDIxLjk0IDgxLjk0LTcuMDEgMTIuMTQtMTguMDUgMjEuNDQtMzEuMiAyNi4yOHYtNzUuODFjLjAzLTMuNzQtMS45Ni03LjItNS4yLTkuMDZ6bTI2LjgtNDAuMzRjLS40Ny0uMjktMS4zLS43OS0xLjg5LTEuMTNsLTYzLjcyLTM2LjhjLTMuMjMtMS44OS03LjIzLTEuODktMTAuNDcgMGwtNzcuNzkgNDQuOTJ2LTMxLjFjLS4wMi0uMzIuMTMtLjYzLjM4LS44M2w2NC40MS0zNy4xNmMyOC42OS0xNi41NSA2NS4zNy02LjcgODEuOTEgMjIgNi45OSAxMi4xMiA5LjUyIDI2LjMxIDcuMTUgNDAuMXptLTE2OC41MSA1NS40My0yNi45NC0xNS41NWMtLjI5LS4xNC0uNDgtLjQyLS41Mi0uNzR2LTc0LjM5Yy4wMi0zMy4xMiAyNi44OS01OS45NiA2MC4wMS01OS45NCAxNC4wMSAwIDI3LjU3IDQuOTIgMzguMzQgMTMuODgtLjQ5LjI2LTEuMzMuNzMtMS44OSAxLjA3bC02My43MiAzNi44Yy0zLjI2IDEuODUtNS4yNiA1LjMxLTUuMjQgOS4wNmwtLjA0IDg5Ljc5em0xNC42My0zMS41NCAzNC42NS0yMC4wMSAzNC42NSAyMHY0MC4wMWwtMzQuNjUgMjAtMzQuNjUtMjB6Ii8+PC9zdmc+;spacing=0;spacingTop=0;" parent="1" vertex="1">
                    <mxGeometry x="900" y="290" width="124.81" height="33.7" as="geometry"/>
                </mxCell>
                <mxCell id="Zka4xVYExCne9jpy6aN3-28" value="Web App" style="text;html=1;strokeColor=none;fillColor=none;align=center;verticalAlign=middle;whiteSpace=wrap;rounded=0;fontSize=18;" parent="1" vertex="1">
                    <mxGeometry x="350.5" y="461" width="95" height="30" as="geometry"/>
                </mxCell>
                <mxCell id="Zka4xVYExCne9jpy6aN3-29" value="" style="shape=image;imageAspect=0;aspect=fixed;verticalLabelPosition=bottom;verticalAlign=top;image=data:image/svg+xml,PHN2ZyB4bWxucz0iaHR0cDovL3d3dy53My5vcmcvMjAwMC9zdmciIHZpZXdCb3g9IjAgMCAxOCAxOCIgaGVpZ2h0PSIxOCIgd2lkdGg9IjE4Ij48ZGVmcz48bGluZWFyR3JhZGllbnQgZ3JhZGllbnRVbml0cz0idXNlclNwYWNlT25Vc2UiIHkyPSIxNS4wMDgiIHgyPSI1LjY4MSIgeTE9Ii0wLjg2MiIgeDE9IjUuNjgxIiBpZD0iZTU1ZDBjMjktYWYxZS00N2Y4LTg2ODctM2I1Nzc4NGE5ZmUyIj48c3RvcCBzdG9wLWNvbG9yPSIjNWVhMGVmIiBvZmZzZXQ9IjAiLz48c3RvcCBzdG9wLWNvbG9yPSIjMDA3OGQ0IiBvZmZzZXQ9IjEiLz48L2xpbmVhckdyYWRpZW50PjwvZGVmcz48ZyBpZD0iYjVmOWNhOGUtZTQ0Yi00ZGEwLWFjNTktYjQ0NGMwNzYxYzA1Ij48cGF0aCBmaWxsPSIjNTBlNmZmIiBkPSJNNy4zLDcuMDE5SDE3LjM0MUEuNjU5LjY1OSwwLDAsMSwxOCw3LjY3N3Y3Ljk4MWEuNjYuNjYsMCwwLDEtLjY1OS42NThoLTQuMTFhLjEwOS4xMDksMCwwLDAtLjA2Ny4wMjNsLTIuMTA4LDEuNjE1YS4yMTkuMjE5LDAsMCwxLS4zNTMtLjE3NFYxNi40MjZhLjExLjExLDAsMCwwLS4xMDktLjExSDcuM2EuNjU5LjY1OSwwLDAsMS0uNjU4LS42NThWNy42NzdBLjY2LjY2LDAsMCwxLDcuMyw3LjAxOVoiLz48cGF0aCBmaWxsPSJ1cmwoI2U1NWQwYzI5LWFmMWUtNDdmOC04Njg3LTNiNTc3ODRhOWZlMikiIGQ9Ik0xMS4zNjEuNjU5djcuOThBLjY1OS42NTksMCwwLDEsMTAuNyw5LjNoLTMuM2EuMTEuMTEsMCwwLDAtLjEwOS4xMXYxLjM1NWEuMjIuMjIsMCwwLDEtLjM1My4xNzRMNC44MzYsOS4zMkEuMTA5LjEwOSwwLDAsMCw0Ljc2OSw5LjNILjY1OUEuNjYuNjYsMCwwLDEsMCw4LjYzOVYuNjU5QS42NTkuNjU5LDAsMCwxLC42NTksMEgxMC43QS42Ni42NiwwLDAsMSwxMS4zNjEuNjU5WiIvPjxwYXRoIGZpbGw9IiNmZmYiIGQ9Ik04LjEsNC4yNmEzLjQ4LDMuNDgsMCwwLDEtLjA3LjcsMy42ODgsMy42ODgsMCwwLDEtLjIuNjY3LDMuMjQ5LDMuMjQ5LDAsMCwxLS4zMjkuNjE1LDQuMDMsNC4wMywwLDAsMS0uMzM2LjQyNi4xNTYuMTU2LDAsMCwxLS4yMjYsMGwtLjAzMS0uMDNhLjE1OS4xNTksMCwwLDEsMC0uMjIsMy4yNjEsMy4yNjEsMCwwLDAsLjMtLjM3OCwzLjE2NCwzLjE2NCwwLDAsMCwuNDc3LTEuMTUzLDMuMjQyLDMuMjQyLDAsMCwwLDAtMS4yNjIsMy4xMywzLjEzLDAsMCwwLS4xODEtLjYsMy4zMTEsMy4zMTEsMCwwLDAtLjMtLjU1MywzLjEwNywzLjEwNywwLDAsMC0uMy0uMzguMTYuMTYsMCwwLDEsMC0uMjJsLjAzMi0uMDMxYS4xNTYuMTU2LDAsMCwxLC4yMjUsMCwzLjU1NSwzLjU1NSwwLDAsMSwuMzM2LjQyOCwzLjQ1MywzLjQ1MywwLDAsMSwuMzI2LjYxNSwzLjc2LDMuNzYsMCwwLDEsLjIuNjY3QTMuMywzLjMsMCwwLDEsOC4xLDQuMjZaTTYuOTI0LDMuM2EyLjUxNiwyLjUxNiwwLDAsMC0uNDMxLS42OTMuMTU1LjE1NSwwLDAsMC0uMjI2LDBsLS4wMzEuMDMxYS4xNTQuMTU0LDAsMCwwLS4wMS4yMTEsMi4xNDIsMi4xNDIsMCwwLDEsMCwyLjgyNS4xNTUuMTU1LDAsMCwwLC4wMS4yMTJsLjAzMS4wMzFhLjE1NS4xNTUsMCwwLDAsLjIyNiwwLDIuNTQ2LDIuNTQ2LDAsMCwwLC40MzEtLjY5MywyLjUxLDIuNTEsMCwwLDAsMC0xLjkxNlptLTEuMjM4LjNhMS4xMzQsMS4xMzQsMCwwLDEsLjE0My4yNDgsMS4wODgsMS4wODgsMCwwLDEsMCwuODI0LDEuMDExLDEuMDExLDAsMCwxLS4xNDIuMjQ1LjE1Ni4xNTYsMCwwLDAsLjAxNC4yMDVsLjAzLjAzYS4xNTkuMTU5LDAsMCwwLC4yMzUtLjAxMiwxLjQyMSwxLjQyMSwwLDAsMCwuMi0uMzM0LDEuNDQ0LDEuNDQ0LDAsMCwwLC4xMDYtLjU0NywxLjQ4NiwxLjQ4NiwwLDAsMC0uMTA5LS41NDcsMS4zNTksMS4zNTksMCwwLDAtLjE5My0uMzMyLjE1OC4xNTgsMCwwLDAtLjIzNi0uMDEzTDUuNywzLjRBLjE1My4xNTMsMCwwLDAsNS42ODYsMy42Wm0tMi0uNDEzSDMuMzE0QS4zMTQuMzE0LDAsMCwwLDMsMy41VjUuMDE4YS4zMTUuMzE1LDAsMCwwLC4zMTQuMzE0aC4zNzRhLjMxNC4zMTQsMCwwLDEsLjIyMi4wOTJsLjkzNy45MzVhLjE2MS4xNjEsMCwwLDAsLjExMS4wNDZoMGEuMTg3LjE4NywwLDAsMCwuMTg3LS4xODdWMi4zYS4xODkuMTg5LDAsMCwwLS4xODktLjE4OWgwYS4xNjIuMTYyLDAsMCwwLS4xMTIuMDQ2TDMuOTEsMy4xQS4zMTUuMzE1LDAsMCwxLDMuNjg4LDMuMTg4WiIvPjxwYXRoIGZpbGw9IiNmZmYiIGQ9Ik0xNS4yMTEsMTAuOTMyYS44MzEuODMxLDAsMSwxLS44My44M0EuODMuODMsMCwwLDEsMTUuMjExLDEwLjkzMlptLTMuNDguODM3YS44MzEuODMxLDAsMSwwLC44MzEtLjgzQS44MzEuODMxLDAsMCwwLDExLjczMSwxMS43NjlabS0yLjY0OSwwYS44MzEuODMxLDAsMSwwLC44MzEtLjgzQS44MzEuODMxLDAsMCwwLDkuMDgyLDExLjc2OVoiLz48L2c+PC9zdmc+;" parent="1" vertex="1">
                    <mxGeometry x="259" y="259.99999999999994" width="70" height="70" as="geometry"/>
                </mxCell>
                <mxCell id="Zka4xVYExCne9jpy6aN3-30" value="Speech-to-Text" style="text;html=1;strokeColor=none;fillColor=none;align=center;verticalAlign=middle;whiteSpace=wrap;rounded=0;fontSize=18;fontStyle=0" parent="1" vertex="1">
                    <mxGeometry x="319.5" y="285.99999999999994" width="155" height="18" as="geometry"/>
                </mxCell>
                <mxCell id="Zka4xVYExCne9jpy6aN3-31" style="edgeStyle=orthogonalEdgeStyle;rounded=0;orthogonalLoop=1;jettySize=auto;html=1;entryX=0.5;entryY=1;entryDx=0;entryDy=0;" parent="1" edge="1">
                    <mxGeometry relative="1" as="geometry">
                        <mxPoint x="293.55000000000007" y="410" as="sourcePoint"/>
                        <mxPoint x="293.55000000000007" y="337" as="targetPoint"/>
                    </mxGeometry>
                </mxCell>
                <mxCell id="Zka4xVYExCne9jpy6aN3-33" value="音声入力" style="edgeLabel;html=1;align=center;verticalAlign=middle;resizable=0;points=[];" parent="Zka4xVYExCne9jpy6aN3-31" vertex="1" connectable="0">
                    <mxGeometry x="0.0192" relative="1" as="geometry">
                        <mxPoint x="-30" as="offset"/>
                    </mxGeometry>
                </mxCell>
                <mxCell id="Zka4xVYExCne9jpy6aN3-32" style="edgeStyle=orthogonalEdgeStyle;rounded=0;orthogonalLoop=1;jettySize=auto;html=1;" parent="1" edge="1">
                    <mxGeometry relative="1" as="geometry">
                        <mxPoint x="323.80000000000007" y="337" as="sourcePoint"/>
                        <mxPoint x="323.80000000000007" y="410" as="targetPoint"/>
                    </mxGeometry>
                </mxCell>
                <mxCell id="Zka4xVYExCne9jpy6aN3-34" value="テキスト" style="edgeLabel;html=1;align=center;verticalAlign=middle;resizable=0;points=[];" parent="Zka4xVYExCne9jpy6aN3-32" vertex="1" connectable="0">
                    <mxGeometry x="-0.1105" y="2" relative="1" as="geometry">
                        <mxPoint x="23" as="offset"/>
                    </mxGeometry>
                </mxCell>
                <mxCell id="Zka4xVYExCne9jpy6aN3-35" value="" style="edgeStyle=orthogonalEdgeStyle;rounded=0;orthogonalLoop=1;jettySize=auto;html=1;" parent="1" edge="1">
                    <mxGeometry relative="1" as="geometry">
                        <mxPoint x="750" y="419.58" as="sourcePoint"/>
                        <mxPoint x="870" y="420" as="targetPoint"/>
                        <Array as="points">
                            <mxPoint x="850" y="419.58"/>
                            <mxPoint x="850" y="419.58"/>
                        </Array>
                    </mxGeometry>
                </mxCell>
                <mxCell id="Zka4xVYExCne9jpy6aN3-61" value="回答のリクエスト" style="edgeLabel;html=1;align=center;verticalAlign=middle;resizable=0;points=[];" parent="Zka4xVYExCne9jpy6aN3-35" vertex="1" connectable="0">
                    <mxGeometry x="0.0215" y="1" relative="1" as="geometry">
                        <mxPoint x="2" y="-9" as="offset"/>
                    </mxGeometry>
                </mxCell>
                <mxCell id="Zka4xVYExCne9jpy6aN3-52" value="Frontend" style="text;html=1;strokeColor=none;fillColor=default;align=center;verticalAlign=middle;whiteSpace=wrap;rounded=0;fontSize=18;fontStyle=1" parent="1" vertex="1">
                    <mxGeometry x="259" y="200" width="91" height="18" as="geometry"/>
                </mxCell>
                <mxCell id="2" style="edgeStyle=none;html=1;" edge="1" parent="1">
                    <mxGeometry relative="1" as="geometry">
                        <mxPoint x="440" y="450" as="targetPoint"/>
                        <Array as="points"/>
                        <mxPoint x="570" y="450" as="sourcePoint"/>
                    </mxGeometry>
                </mxCell>
                <mxCell id="5" value="レスポンス" style="edgeLabel;html=1;align=center;verticalAlign=middle;resizable=0;points=[];" vertex="1" connectable="0" parent="2">
                    <mxGeometry x="-0.5846" relative="1" as="geometry">
                        <mxPoint x="-35" y="50" as="offset"/>
                    </mxGeometry>
                </mxCell>
                <mxCell id="Zka4xVYExCne9jpy6aN3-54" value="" style="shape=image;imageAspect=0;aspect=fixed;verticalLabelPosition=bottom;verticalAlign=top;image=data:image/webp,UklGRuIoAABXRUJQVlA4TNUoAAAvacIxEDUHw7Ztw0j/n52sdZccEBETwKGyuYMbBXUYKIsqy5hyJtWAYyQ7BzDBlMoWKGlH9I0Htnz+jbxvgVAb0Fcvif4HCpxoAjJwl8VOPZDsG1TyzrxyCtD0xQIuWobLpYdTbjl0yW38mCmmCQBWN5LzZ7embcnYZKk9XM1My8xGMcsolmzLbbaMDcNMzVQrS5/e+77Pr+v1SV6c0w4sY/eilndPzKgN07Bv2b52qmuvYablMCdHZmZ0TszMzMzMzMxMnSszZ3m3Kz+A8YUcVBhvW9UzQYU5WXRVrqQw0zK/2xe+dc0pHOoCACpprj35/XcfYGUXB1TgFMKhsTBQcT1j6dzX607Dt207dW3btoXQJUsChG3s1m9j/P9nFsm1tR3bY2T2+/+fv4K4E3dga+oU4JFVAsd2AbaNaxQn95bFSLJrNV1r6VgHXrAIL4N/LWvbdmx7syj9jrfjrlgWoJgnGXUJugbPj9i27SxM9eN9r+e+r+f53zejO6htux1lVNu2zdg2artBjTuc1bZt27Zt27a/2rGd2rYRJ3Ubm7UR89u+uo1t27W/2qYkSZIcW9mW9/8fOCeXmeqZeQ/jaa0fWmu9ZclpMJNY21bQysK+G01i5BEFHlPHSIAkybSt2HOe/d7lPNu2bdv4tm3btm3btm3b9u+RBUmy2zY9z1WSc2AE3gNQ/gwGcNj//+mu8XWuJ5BVjV0+0dTj601dftfU5WoKuZp6XIzm/790zds3dvmYJ5CVNb7NOeR//+8OsjqVNUx5AtncFPKNln7/2drvWre6D2zd7hjQB37gzX6iqcc3Gtq8ubqmU+wttxPDDQHvbA75zQcyq9Y+aQ77m4Y273DbGGZp1TdlcXOvP0DxMdbutWx1TT1+UNeUxWwsB8tpDQHvbwn7/x+HqqXfMYbmsP/3BLLXocU01lW5i+GGjpxrCbsvh43u6VxDdGoOWUMg591uDLOsyj0fbgz4EoYfeRGqoSOXy12MsKqcVgx4Ajn/Twg0hx08TSHDnyfg8yXMB9hUdW098N2Ya+oxer77zBiob8kBFlWNrwsbu/LvzO1cY08g19CVf9W+LWJNldk+5Ono4/9q9xq7AjlPoI/LnBhiS9U2bdejMqjGDqOstqG7WFLlLponkPcfzKQaOoIqT1veux2fZEfV+rrpVRhaQyACqPF1IyvKBEdvfUtvQ/hYwkBDwNqB+gbfMkujNxNS4dkcT1t+fSVEDW3GWDyB+IT6lvys8Gx2JqTOb0erev/snOrGEjZPm6FUHwi81bdFVd1WZULq/Hks0HqLi141vp7MhNT18zg2uPbqW6K9qPX1RnHD/yIDUueP4+XgDUem+qbwJ1TXUqjVNvRxZddqmAGp8/sLdf85+D+xU11ToVHj25eqXlzqDEid3w/850gxVm3TwFTjW2r4cFKmZC9xX21DHUNNXZMJqeP7C3X9fnGqG0tsd5ka3p2UAamuWdU21avRVesrhlRT05Sa0VhQ1VUrfD6Ea3zTzlXXLC47GwuqqmpV0zDfjrFqH9qTqhrChqqsoaob8AXtQnUdaKquGxxUVS0uKxoLqrKKqvbN7zKSqrqBr7JqcZnRWFAVVVSVb67NkKpqhq7KisVpZmNl/S8+q6oaIFZURQUF50OJCVWWLWyoWj+/cRQ7VVaBeVSUEaeRjQVVy+cP9qamygpQEOBUYa/CQ5x6NhZULZ8+eEpkqywbzFS4Foc+Gguqlo9vTCCsogKRrKIMbSZVHCrlZY+DjcaCqunTiUMUC5pUdsdQ7nkcWjb2Vb/MjC1V08cT/YZvkgfMqNxFHGo2FlRNHz6YWm/lnmtf3K7Hro7Ggqrxw4kxIlm56zDkdjxVP78oA1Lj+xObi4ncbkDA7boAyhxPJqSG91+YuCkxHLfjfJXZnqqfXRQDoDesTh2sgYZigUQwhVnjCwJ/S2p4fyLpjSWeY5JgH7AgmFYskAhKeOcFQaYlNbw7sXczuW3Xhs6pwl2ZE+gpc5yvUttT5fNKMQB2SMDEYoFEUMBzCUi3pIa3J56WrDVrrtQJ2CuxI1U+q5QBqe7dF3mRr9QOmCixIpmQ6t5+cSj1lVrBZSaXEUqsgO4kX+1q9E4VWIkZqfJppUzJ1TBWYgaXHu6zoW9aDkxlzZWZ4WpYUoDCFHwgD9rDGFgA62EnHITDpoPIdI3LyLoaLBey062dRppUDVPHasYzWbjScNs8dUWOK7PSC2LPZWaqeFrJOHCHNrAB7sMvbynITdc4jawXxNf+Tj19SU0bNp+KOV+E85r+3QyzjI45txX2x53LiFTxpJJZS/UnIAM2wVdvMchO1zj1rP1xUWKEgG7tZKHMdo3bsN1Vt2DRcD5mfDfplulHwKAHtxlKjIBOiR7gcLGIWSuCzQBgn4ZzsizghxJGSlhwasmphkmemzpU0587zt/sWbO+Db0QiCgYmXMb6ZXRchmJNqeeqeJaySQoh7fep+cCfyjhwKUnBxv2qG4572GDzJ43GzggwCAgICJgZKHMTLsghVXQCP74dB2Sj2CanCw51FRqhsa+2faKLZg3HNjc+c9gTwkQJBJ4RDEFAwtlRnoqnDlZpvJrkDmQBN98us7BRj0VPn7Taw+HluzaUO6FKUN1Wi6g+ctmRFXFIyDkEcUE9Cyt2mOP3wTbAycOlqnsGmQMWMB1n7azs1F74MShD3YtOfRU3XSbX7CVHBXj6yoeAvFOGnV6FkqMAcVZoe/ffdnZSGXXSsZAP5++s2ujwB8tlrOzZFOTywyePuwyf0E4ag7eVnHIkba5mY6FEn34dxw5WGpj1zKVXSqZAip4msaza1kBPljk+Z4qeuxq+gi3F6aM1PSXjqPsCKGIg0B8RkSMTgslenpoDEEOmvs0nl3NemgsXMNWGhxqqGq4zS7EnE/C0ZC5K3pBR3znZvuWaOkamLKrmUovQYZkKeJc6TybOuoaGLCXko2m+/b0YRfvjcN0Uhwyn3zeQaeGEm0ImF0bMGFTRyo9BxkC1h2k82ylUe+P3G5WZShz0+ShOS1HV/5JFweB+E8aBa2aXNrw/gjZ1QEslUpPQYa81mceDoDmontdtNJ3m02E97BpZ5uyOAQENLpScKnpABzZSiOVnioZAn3TejYl6wCELmpTkpWkt/T0zC435WCo+NMJMBDQiAhoS8mlDhfFkE0ZMQWWpvVsNOui6Fjp8L33MGWgTstB0nRDErFJIACcNAJaJTnVYTdK7YaWVRmp5BRkCBxJ61npqN0QsSmDhQxPXemHi3tvHIbVxk8kVTEJGAhwfkWjJGdp2A01a2kIzKLMVHwKMgP04aYOc6dtbkCNVR383UCYRRnMeLCzoT6EXe7IQbTNW9NfM0LiCHju/RZffAPEkAWW8CwMeA8XYftpYC5MMRN4p2ssdNQN4LMqg4UOZjI95OSBOi0H1/SvZh3TCBF4A2/ewqEMe2HGQmcqPgaZAZpViMFHmAc5YEOh68wVw8AIVGAPbuDxmROAC9iB4kIgIsxCRu0Fm0WZfvxhKmpu04ngOdjmLprBruoggSaNOA1NP/vW4HODnpmuGEJhD1+kYDf4xuBKGQqJUgy7App9RRANGffqCbpDtVEtgScUw0BYCcfgDryAT/ADfm77pY3Ah83+F07AehgHzSDqAdFkJrNCcH2gCU02barrOe9hw7dw+TPWV2EScF5Oqwx2ZQohZqGTP6hROErnkr8aDF3UfQLMwRGCIHHHUAK1UC8KWp8CRsLMo7z6wNP/92Qjwnf46wsHu8wBBRTBbLh2Fi8KXsLeySEEdGLJeYvOjCcTXlz20DqA6U8dh8ZhOiIOAqEwWjrY6fQ8ODGTmYoPQTbB61e6SAMziIFOsAROwWP4DP+8wd5lylZhBjzxYeoFzkBXsI0aM571PBCZ0OKupE0nynvYiMrcZT2EwoiJ+5iTW8iEETOeqejQyCYY6yIMdCGtQbhX1FoKdSAVtvXiQ/dkGP33aKn8UjGKucxwquu6ed8Nh452xHrJQCiNlgx2MsHMTBbqPtCHCc9UtA+y6DgQHl2gB3Vw2hdKpc/AWvjvjXQyaAWyNl3BABghCUZdKuuOKKyySyD5jSVcv/IlPIcw66Rr+wuVTQ0ZbGT6QAxgEDwA08g6HRzyXqnB81bhjQUbBlPmy15ULiS5wiq7VDzIUGY83axYnuo6jkNZ5Z8uSgi1pQYPNjzdDBcmNGMT7HFRldeI12ow2OJNBjcgSJWr9CLzAVeEys4V8xnLJE/l5TB/QVA2+ZaQRAyE4vLUNjSY0YAJE5ypcB9kESyIqMFhuvdaQeCavNk2CxGKgEL4Jz5kIkhFqux0YSvmMsnD5lOBsi1eSe8SRAjFERGnQcmKJnqZ8ESTCU0gxXClwl2QRTA+murfv1fr+U/3poNHG9fjU17kant2Rar0XFH0rSVcPqfqbUqcNG/WIGynr2aAbrx3uFLdVOPBgpdivGChCFVsgmHRtCGv1mPP580Hx8FYC8jasAj8voorSiXnQFcGK5DLtBODsLmLZqCrBNgRyvOkKjxZ0FKMFhwUwZUKN0EWwaBIOk8vaoElnPM2GkQJUMJtLwKDXdEqOQV+arAiebEb0+x3gnDG1kU8coRQX6rQZIET9YrhBFGRvFLhplK8AgXc8WpZejEA3yFUhwa9yHnenESRNKsYTT72gaNQnH4IYUfoiTgE1COPKMZODYef34eqRVc382rtfcPeTrdSYe4Ni8ArcHPJ7ANTkTxZlOlbkTVv0Vwp7I3GpgpOZrgUwQW5QlipYBMUqzYOn9QiGMBJb0kvEKYAqOG+l9jwvVwyhfKqM0NVIC71fYeoKzum3aiaSqJAaBFQ+KiXNMvL86FWKFcqWAfFKpjp1Xqit9anFGjF+9BH5y+UVj0fVEXSUgyX7W8ZirZ+a3Rjtr5tVoYj3ugtlXA65aK0jQ+kFkHA7lCvAW8y4k0aCbFr7GSgsO6JuSKXeLZFz1coLnYjWY+EbMDcPzvITXsgWbtMzEycDAIEhL41T6qEi1laro9WoVSpYBUUpy7n1Xrsd4Ryp/8yNEAseIH9YFcAD4iCqsZucBYv6zy2gVb2dTdpzSVXKK66PmRF4pJTmBKK7hCBgNmCZVN/RQ7TFakK9IIgxECgeMQnVcqTSSqF0oJUgVQpf9UoRp0KHuoF7bwMbIUUMHDJykJqDaY2Ittsbhss8iI5LoUCcdUHw2aSFqk4DTXMTt8NtGbNGtdlN6auYj1ttxRDGhF2CnkyiQv85k9WgViJU5DvQ5l5RHj59BQNZNToIgNBc5e63e5eYlgUyS4oyxaBpYkbwoqbAxWLi0waNr4mkNruo8k7YSeJxxBNII74uVoUwuY3KKXJVFxuDltcgzkhwPnGoBD8/n7wRLDqK2lzPtqkN/9X9GVu2TKOS0jmyIHCqj2fTzZlYDUulYr2gfnNVyAskw8NlDZ9IpIDNsAwcRA6iD8BhqX9GYxrqCQCEJZiDEpx+tPC4oJOQbFi5KoxZ79ck3xn1NwtOUmNmQTOoqfjHCcLAgYSTA5ckVWn8RLwA+JdShXtAnszX36+uL30sbRbsNI0XpPD90SfkuleTvx18OuYRjFgW742O301It3EYCwV0lJcLAVisVa+uGMA1Zizz0jPvpALw3/pZH3PJIj1AnCCQjY3f+21NkFltgj0cqlVuG8YJ2QFxcVPvlhA8oulCJdnp9nsWVP2sxvfUEnE8ICLhZGwEJkhZVV8xnb4JBzHTWyKMIExcmkqKpZubJVfrOjBbszZ8F4mO885+6BIAjo7KQieOTVoYtHf5/USP7qWQAX7hm4sZChs9O7hv8+i026IpzrikIsQP7FuMqGhyn+SObOGa/P1vaAjUEYmLRUfflzBobGl8ooVHdgNYZNHDYwU2r/TYI8mzwA6OFxOLc8eELDSS8BT0eKj8vcNp7eQIV/c1bRw2VBv82ciH7C1TcPHIwd4sGWM76PCEXus8Yb4n8bmW0IeBMqIMJRyCB4nenbfqZHWARPASg3YJNPckVSAlhJXceJgvuAZxZ4/yvaqbdpZlVdcAIzFUgiXGS8d1VruuiNvib4q8DHQxcLuAYaRHIgn4gBmfjfrW0qAHYFBSMyApRwq761XK+UVVuCFTiOjaoEiTy8DbZxWK5ODLqnBEGuucDJzq9zK3zX0aiO9UKYeKWoPfav83R20JX6pG7AK8fEIBjoq/4Rt/9EEehgJTwic5TMr3gVXsAu2UV5+Rcfthn0/QzHRgsJyUpGdTum0fgI95b4gmIdqS5ZNwDrRX+Owu5Qpf9vwOxsZ+OV3KDx9vlnzeTesooQIQBcLI3wiNmProvQHmTVrKL1MIJzlk0vZV65o1ziWwKWssstagOtLRXpzOkCpBKyRgzh4k7L5bYF6L3Gfzzg9jPnymdvdsEBt9dpoRmw9y/Cgh1jGulMVc9iOqL/q5i8bLrDNXkhvFYQECKTlN/zXmxoLBT5jvlL28kfqwSGnxVZlv8SESkCqaBlMV2KJoJsI2lQlAiWCiSXgNKkINHZChnzVHyOhB6WmG8BNvSdH3xH9VbO0A3ixUMRM1q7Y+LHhKHmKUVUVJtBGWlwK8mVFoFbQZxQqZS9+pN6t1PimcKWrEuC/YdkLT3PZkYgiwUYvAfOclEGoWoGEIb8VomXmG/Fv3rKp+dcdMhApCoCufjzIrcIb2kp3xLZ5aziqVAO2lMDyzGnY/V1+flsRABN0HTWgtQisdkqMKjog+sm2rxs08hLHAIUuK3Tc1rwHfo+ttE+7kVUV4yOgqx+xkTXlmHYzZoTOa5+GEogj8JbSwlIgFKNQIDPyFf0GUQMGiuQZR+PGOdncNHDRbHbR1zVyOidm4Ks+FA0DKMV4mfXecRz3yPojtoFtVoZBq54/O0Sgav6S+YuG3p0Wj7SaQFzec75QoGUQig8DXylrcZN60EWNR4vsXQsHK7yokz3i4GolbLJsjf41nCGPD5GW25p2gZv2SLL2hEg3l19F/K3m0zSTscOm3BOOrhfrITBHUljyhO3xIWk3QZ0asEz08LN9NaC9eCLvre73hRWBpUbQwkuMDjoh6PldBqEgoue358tsmeSSAd1qF4ny65lKPWT3zdHXcE0ITGtEyO3613phg0nP75S5eEi986jxLonXg4kaQ/cSZr7dTj+3jpwJBxtcldnHFL2nCnV8Lh1/1f2houcvufw2AIU1/quVQgSntky66d8NB8Ps2c8GthIQR6AuJfliFC5MUvZW1dikRH9Zd4dQY3A468PWDlwdfWwoAb8plaj/R8KF8hp9kpHfFMKyNnI+c7WeZAoHa4mK392cRQNl9Ua/PKEhdn4QuEsxctJ8MfKXT4JHD3bKnD+kHfzsXI17SPzTqeGgpzfStncKB9bxiIYPbl+Ol4ChLpRyVje6s9fx5UJJR0FAgAgQLO2rmiOHrOWWcHDUX5GJLRX5Gu8fuDMAOZmw5IFNDzZK5YnSczvqwYfBtADpEqINX4qAwyoMPjdMCjuhS+d2bXxMiS7fHE45yxt5FjOCTcGXdNl1r22a1938hUBaea67g7dExO9WGMhLqVCM4PKvVETT06fUDEYr4r5neLLCj6BgcHsGh13ChfJq6bnNwF3y2GA6Zdt/Elg/RehQgUiiEA/hQQgKQmLEOEj5YuQuOnCBRMddKWP+kHZwDUVfC5DPIJqYp8meN+sNBwf/bQ20Fe3LgyoXUtnLG1NaTMddpoxhwayBtGq+IYcORBIBwFOzIvCXEmEzgBtDBMeW8uAttBgcrkhAR03cpbzp4F+DoLBjXSNKPNrpoQNbQDpu02QuDVvAQan1jhy+K3YGHE4kfNeJFKAv718KFgO3nR0KXW6njNlD2u3QaQZtVKEQQ3rjLX5ACyAVuwx7RI8BYB5a2Ysb5Sx/bDFtblux4wOD0NQHcsRQJCsAWvGRQ7aF55q8Ag9/KeGLMbe1pcttdOmyO2VMH7LofHDIRPeAPqpBE1Xcguey8NIXIs2DGGjpJaC/M+9CJlOnL5NqiXYbPZIj9UWKAt3+h/Mg4dAreK4IxzXfNMnEhOCPBBRD7uL9J8A5GGBo/UJ8clv8kfmxWfA1LRu6bkC2jbC70Mqe37iQzbS5iy67bfVb0GuTZ3LULdG7BDxwNbEhdl+48sN5vV43gb/5zobsdjn6tNmd0qedbK7Jir4cZdyC+zc/pgeFYbkjellw/eBhlTW/0arV1OmLTZ/mzxsabfZMXr6PCpcHXP9YGRvrq+o/xO/ZqZu/NLu8A4G/zAVl2aIt6GBB6Pa4U/NTsUJ+As/4KJJml1OnttYhUH9yVtYuuzXo7tioAMPouqr80y1Y/nD+tGPGE/hLEQqS3KLPXrTZjS5tZifWQS993J6/B28Ny4UMHXxeWA+3mya95RXLjOeOWlu8kNw91l8zPSHAqmNUTU36Re6eA5k5a4ZXFIq5/xyw6TMXTe5CkyZ7JdbBEAtMdI7Jp9+w0QEnQV8H+A5J4ZS5eLBVYZrsBRpl8lZeS1Ta+rWRHbI0zQDe4kHC0UuW/SBzFw0XQOMN+aUQQbCZy5WXenV6NJkrpU076ad5i/GsFpgJDLob++uT5npjQZEO/r9AoZQ5f3ANy2kyF3X6sslEBWybt0Y5YGkMQIfTER1WUa4fHZV7/VUjFgeBoNjM4TZd5qLO3vw6lSh15k5pk05xiSD1J/FrC8w17sWGh8GwCi7Amw2bMCdB6OBvda0wyph3nMp2qvStAJZZbwTcA6mGTKwbHrTiB5eNfdrNmf1wVMyZ/4xvKCQjhu4jtdnH0/uKdw4OiWYtWmA40BkVwqEGhu914rA7/eEHeCrhobdmT69IPsrrA/DFQLSjLt0wvWQAPPw3yg9ylXXSzZ43HEVbvjTBKEGw+ck5uU2XvqkzNxrU6TulTgbFph1K3MMCK6Ho7vn5l4JR74Kb8JvGo+a12Pa/Qyhj1vEe66nTN2XqMe3U+LXjZ/NR65jm8oDX0Fq1ckPXmM7ZrO+Go67+H0mhRogByeZttenboqAHiTaAXcs4q5ccsKI8OCPezaeFhwdgp9h3XNCQv/x8Wzt9kfyTbj1L8atBh3O8orPuyjR/0GgshGSZnbu8gSpzo0yVvhOfYJ7EmKAyz24tDf9fmUmPpIVv6lpipc86bq8gefJh1Zd5c8JdufCUHa+7A/AW3etapuCko/8o8yeJIpl9snObJvNg/hqTgL8QaJ7tbnEi2aY8CFfDj63Z2ykSt+ogWC66DR3FrwK9htYZjcfssWA8tkQxYCsjKDZPmZ3dNKnb71GkSt0pdTwoNuV5ScNHjTv4w7ykS9mwgVzh93mtVOnTjqlUdMFR/BSHIYGC/7MAu9MN8yQ7fDQcHPckgCaGZJmdvWhTNyaO/suc9RY5DvIBou3WFtwHgoQLW/3TX6nZ72mSt7GFSUjB9y160g2jHrHtPggHTf5JR5YjObC9NamHKnWjRJW8U+poUGyCZNmxwkE3jL/qRGw6i0vAQgvO5Ea9mpd1IjCQKX3S0ZySDhybn7wT6xmgG+WAbftBOJjcP8l/hpFMVvZyILMHXqLtGzNDSAijNmWX2RPovto8WJkIotBhlaRnimnPpgvSp0o91KnHmMKyauky6QF7ZA6ySw8tq7VkCCHYFMGQlb1pko8LUqBMPillNCg2gQJeekkwRYxgBd3gkTfnzZDZD+Sl6CTgGgakS8DRpf3fhGnw4BZhLpb2OJsWKW0ysDktKVOHKvk4GB5yDsUrcfBN/yaZOyxyKwRLEXRZmZs6eTB5WaXIspMZw8cTCC+ueN9X894gsG/Ep2zzYYD7SyUvHRKxyYYd5zyuqHXNwm01n2OPMvmAQR4/yrwJ1e9VMdAz3TEYxcIx8GZW+qJOHq8QUOmj/pE5c7DSi4JN+xUA05zDem/UFUYUPHeGkQiaMQXgQv1hhDrBVRPwSLrY60ICpY0HrqgnRexRFwZEM/2rUY/YsqXL6ZSAIbo8FO5OYzDeF+mmESAA3/ealbmoEw9l8tZGkXwAlDbqH2Xx05izU3hZI6dEMNwjXPLeMArtmEZnDFBYzGsdnH926FPZf0+gtHHHUc10n1AoEg9Z/KjrBw6RLV9J7j5LY4an/DpbMf48QzwlZoaMqorCM/bI3L+tYxnwPGNm5qZKPO7Ti5lrxgv7Mpglv/wdqH6h98ZRKAQ3xZVQihQCheXTbRso6cmVYbB0WeH6Uitt1LF3Q2E+3JZv5Hk3dIwAQS/ohAgoPOc5Fj5j9p5ovSUPscVz03RD7p7zKvvRnetBgPO2mekLeNa85lJH/aM0fhpzdoWbeGFbh4pnFwV0oGhY7y0AY7ibWgd7DqGJP0seHRNBNuoCyXerwV4v68mPtW3N9MgTD2n0Ud1NFH6UlbkzQ/7B458x1hOOgbdid+mads/FgRwxZD3g43nGjPRFmTxODBCvshQpxM0XbsMMqIXQJo405dxwxHsrKEWW7LLfY5gfli262B+TfpTicfccT/eyhn12KqWOOtasqi5p7OFupXnzHw6dHb9I9b9OdsDG1JVYhyRiwj18VIBAgGF1bPmqjoNI7lCB4MC2fiNrG6oDfDxvm5G5KBMPhs79NdxS9hGf/nrvjTB00pj+WpJr0AsMadJmZ3cpOon0+3zZvC64JJGHuZzukUPqRC135LdVA3akUExsqhEVNcgzj7SOZda31DMMLZtRVSHZZ4G+Mjsvu3jsHiTAZKRvysTRBVDq4/5RGjuNQYOkbK3nSn65FwQ95EcX/7NoZZhJ0NLUecZzb5SCPP5UF25yI4dKG8AveoTul62YPW9mfjdPOHf+Q+ECwBsdoi2iBDxpMDyuMv5g5hb8mQ6G9uTOnCP0d9H7nOzuTILk1FAMuvSyOliRdbLEQU+XJHIcBU51/wiHra/z3mkWYHn09EMRPx7CjyxxUvKjQTHKwTQVjJ2wNBsWr0gCUuCKl5gXzO2e/33jT/ay4NSpkpLFTz0EfqSx18GExXjSzV9pcM141PEk4GSkbor4i5FreMNKtSTc8tfIq3Na6yoZHGLPUHIr4as5WGr76im+kOtlwUzlZImXPHqMzpVDdcTW7wTLFi5/av91ImaExJGAI5ZDZvKhiB2y+OFDFj8peTgoToEunFBBeMZS8Q6rp/c3Oswa5KnQc37oC+NgeX8deGk/sX5FKLN6YdA4GVns1NVw9Mwjc+U73T8Jfm3/0Vgn3ThfJVGIUbmbXwxDRurxzAycgyZa/RZ+2/yz9PBL63YJx6VHi327clfrHMMVITZH2hLbvjV41XJLjr4t0nXj9/vLUFkqYi9Z7PCSxU5KGk6KVVu8mlJZN7sEu2yCRgqu3Am84Y10d1lXRZNFT/0nlmSx1zuMA2UtCNc1n3dzFw1ODa+og0jgc5csxclM3BTRg3lz+7YtzBVi2TPsLzVcjVhb0u9zkazbXSSBqR8aD5Z4AivH1EX9FcEgv9erab4jfTUI0XmcnFhOGcmHPPaSxo7V0thJSYNJ8epUcMOc+2x3pyZd/EHWvPR0Oq7lT3zFldCiKNLoqdW4+qFxoCQQ073XoQLxLGi7+6YbcuQ++8q2//nZeV+vjwoxQujMGTISD3n0xbi5fnJNHcrlU7O7HKNzfbcPL23JczosuHuhgRbVbrU8erxnAoVQHIRkBQ4TiIbr7o2QtekzMRyxYVVD1pJg2TGnPRD9EfuPEB8i9AipOcObyiOHNHpScDApZrl1GNHLUVpzzv0SThmdVb6+49ixDhSh5Uo4h+7Ay4KroExOGj1w9B7jQEkg0BXhyQRflP7oZnw3KDqH6ax7gT4lc/lbJRBHYpEUavgOCK9rv+YMGfGbPHJSYDApbp3qcwbA7jWIX/W9y4UJelgB867lLIB8Zf40BKkwaeTUhTGmiBzjQOnqIiE+fM8/OvmezF82UDvbY//xE5y0x+/1ayIhSM9pGCCHo8eflFcXxS339x7C6g+KEjYhnx38LheqU2Qblz3Ifp0erhUvDNorIY0cNFz4L8ZxJdLl84Mgkym8hmbEWu/I7HkD6SLhFi+k9Gf3ZMffmUfwvHohBZEcWc70ptjlXnmDUNZ0pqQn5AGPEc2uyXrxiIadrNB5MjQ50tal3wdiC5FE3pJEX1iTRT9jQfnULp+viLfqSSIw0FFH3RbOabfpU0Nza6ev5k7WC3b0bTasok4avnxHAnEEhSSMLP38pfjljrSw3NPfmOqcRWMbXv0HwV2atGFYun2ni4OwP3tZcPPg6u0ii7zGgEVIIZEY3w/BSEcPn6qYDR1zyg/+78l3ZJt3MmvWBLpy8rFPuO17M/WBHDP/uHvwMTWRbpi75rvjEcQIKskYWdbpSzHMuSWFs0k6GCT1HN0p4Y7hdabYdKHpxMZ+1Nf37pw2Dlp6YbB2MSfZPHXfmJNGXrf51BsQfxEBhjjkeqJ33V+Dc7/fwdvip7J32dnL+lf4a1/72mhHDP7ufMQeO1hLjKiacy/buYPno7EI8Vq05ka937yCPfEwS3RR1G0ZX9H87LZOBN8NGAjWNbNfp1CiELDEC7uAfpLIS7Z5jAaLdxMsEuuIxkHge/zxXxPt8H/fCKBwyhWB4WrAftFmCxe+UXO6TH6vyz3kxZwo0Hl8crDLGQn8oOfjOwi3hfAG0KtzU/8zDyOKZgGEPNLqYb0wyLYiN/KCS7L5km6+RoPi3aSv3URh/v83CroARKuRt/BdPlWoTl9euEHGvt/97geDIc0Zafa27jLsvI1kF3ElyZAsv8bN5H9RUGTuqFn/nv8ocG5S+CmYUgKv+mtwAHD7hDNVIhjmSP6lXhn2vvVGWTs/aMHhxM70J4l8xnDLp96gfRTrfaKrE0DUT6C8rX/X7/RV/wPWBYn3graTf28dMG/LW97yaWBubzAgB/J/e3CQXDSLgtzIhx/NLZ/a1S7KfCo4mCg4mByBcjc/0o3Xb33qDRaT9ZZv2T2aK596g8UAFRwMFBwMVlbO5kvYW15+z0gX+6/AYOLQ0Shn8yPZeO35qYsDikpLR4Klc7FZz/U5I7nlU9l/0RlvedVO9l+EPhwBSifOiaVsLKgC/USBfnKEyl1/5W58PreT5RepvLPYrJyNz4GX7bwBey9/n8jfJ0ernPVPzsYfI7jyqWy+qPVnl+1cbNZ5ctc/797ZtRig7PVX+5Cz9spZf717J0svfzfxES1lbXwgOuA8w8CyBMdE8mgsqHx94qgRLHv98/5D+dK5WKes9Q9Uf5e99lmxJBOXr0u8IZJlrf/xdyt2W1+ZL72Xv3vBbjNxUR33MoxbOll3+dpEvjY5qmWvfu5lKFiWsO8iPIaC0olVyzpeVF+G3bLW/vh4rCYF+9cSVpc2A5Kvzeeri/R4iSU3wKZk7E+XvWhGGZCgXUeCdnGUy1r9440wWqYi3FruQyIDErRrXqSRzLW/nHowvyzBpd7IT7kMSNCu5isU8Q+HgAWX6QtjVSYkqMs7aNfPqI8fK/kwifhPsZizMyFBXTpBu47bFtTF1suXi4P6j0tcBasYFx2dvXpcJlRQV9sObadhlLhqrGH0hbEhmBEJMjVBXc+iPzpU8GEy9nfrFsZkMDMqqKt3h8WA0Rf6jiBLKsg0D+q6FQPjLLZHCsKjDYUxGGRLgrpygrr+RH/ky2TLHyYR/O0vx7wgexJkjgoyOfrla5LXj3T6wNgXZFEFTeoHmRviYezWmlTkp4fl5kCQTQmatAgy98bBuHUJq8q2PuyN/MIG+TkcZFeCJs2DzHWxMIpfVbYyEol7x4HCGgqyLUGmXpA5Msj8Gwej+HXl4p692bwk4n/7Qt89Orv7gyxMkJkbZF6J4w9TsN/ZJcjOBJlmQWaPIPNhHHxodiRjf9UHxZaB/BwKsjZBpirIbBFkHgwyv0V9BDnZzOhqu1yYjPE9FfmVfrKvWbcwJoLsTpDpEWQ2BJnTg8z9QeadIPNXkInolq9JjDGQn5VEXAoC2lKw6438Xwr2J6nIL6XiONhP9iXpYk4Psi4OAA==;movable=1;resizable=1;rotatable=1;deletable=1;editable=1;locked=0;connectable=1;" parent="1" vertex="1">
                    <mxGeometry x="580" y="409" width="154.76" height="50" as="geometry"/>
                </mxCell>
                <mxCell id="Zka4xVYExCne9jpy6aN3-56" value="Backend (Python)" style="text;html=1;strokeColor=none;fillColor=default;align=center;verticalAlign=middle;whiteSpace=wrap;rounded=0;fontSize=18;fontStyle=1" parent="1" vertex="1">
                    <mxGeometry x="580" y="200" width="170" height="18" as="geometry"/>
                </mxCell>
                <mxCell id="Zka4xVYExCne9jpy6aN3-45" value="" style="image;aspect=fixed;html=1;points=[];align=center;fontSize=12;image=img/lib/azure2/general/Templates.svg;" parent="1" vertex="1">
                    <mxGeometry x="490" y="440" width="37.5" height="45.54" as="geometry"/>
                </mxCell>
                <mxCell id="Zka4xVYExCne9jpy6aN3-60" value="" style="edgeStyle=orthogonalEdgeStyle;rounded=0;orthogonalLoop=1;jettySize=auto;html=1;" parent="1" edge="1">
                    <mxGeometry relative="1" as="geometry">
                        <mxPoint x="440" y="420" as="sourcePoint"/>
                        <mxPoint x="570" y="420" as="targetPoint"/>
                        <Array as="points">
                            <mxPoint x="460" y="420"/>
                            <mxPoint x="460" y="420"/>
                        </Array>
                    </mxGeometry>
                </mxCell>
                <mxCell id="Zka4xVYExCne9jpy6aN3-64" value="入力データ" style="edgeLabel;html=1;align=center;verticalAlign=middle;resizable=0;points=[];" parent="Zka4xVYExCne9jpy6aN3-60" vertex="1" connectable="0">
                    <mxGeometry x="-0.1368" y="1" relative="1" as="geometry">
                        <mxPoint x="17" y="-10" as="offset"/>
                    </mxGeometry>
                </mxCell>
                <mxCell id="Zka4xVYExCne9jpy6aN3-62" value="&lt;span style=&quot;color: rgb(0, 0, 0); font-family: Helvetica; font-size: 18px; font-style: normal; font-variant-ligatures: normal; font-variant-caps: normal; font-weight: 400; letter-spacing: normal; orphans: 2; text-indent: 0px; text-transform: none; widows: 2; word-spacing: 0px; -webkit-text-stroke-width: 0px; background-color: rgb(251, 251, 251); text-decoration-thickness: initial; text-decoration-style: initial; text-decoration-color: initial; float: none; display: inline !important;&quot;&gt;(LCEL)&lt;/span&gt;" style="text;whiteSpace=wrap;html=1;align=center;fontSize=18;" parent="1" vertex="1">
                    <mxGeometry x="950" y="446" width="160" height="60" as="geometry"/>
                </mxCell>
                <mxCell id="3" style="edgeStyle=none;html=1;" edge="1" parent="1">
                    <mxGeometry relative="1" as="geometry">
                        <mxPoint x="750" y="446" as="targetPoint"/>
                        <Array as="points"/>
                        <mxPoint x="870" y="446" as="sourcePoint"/>
                    </mxGeometry>
                </mxCell>
                <mxCell id="4" value="生成文章" style="edgeLabel;html=1;align=center;verticalAlign=middle;resizable=0;points=[];" vertex="1" connectable="0" parent="3">
                    <mxGeometry x="-0.0421" y="3" relative="1" as="geometry">
                        <mxPoint y="10" as="offset"/>
                    </mxGeometry>
                </mxCell>
            </root>
        </mxGraphModel>
    </diagram>
</mxfile>
